{
  "accessors": [
    {
      "bufferView": 2,
      "componentType": 5126,
      "count": 65532,
      "max": [
        29.537748336791992,
        51.552135467529297,
        60.73974609375
      ],
      "min": [
        -43.671855926513672,
        -36.763153076171875,
        -0.57802331447601318
      ],
      "type": "VEC3"
    },
    {
      "bufferView": 2,
      "byteOffset": 786384,
      "componentType": 5126,
      "count": 65532,
      "max": [
        1,
        1,
        1
      ],
      "min": [
        -1,
        -1,
        -1
      ],
      "type": "VEC3"
    },
    {
      "bufferView": 1,
      "componentType": 5126,
      "count": 65532,
      "max": [
        0.99949604272842407,
        0.99950003623962402
      ],
      "min": [
        0.00050000002374872565,
        0.00050000002374872565
      ],
      "type": "VEC2"
    },
    {
      "bufferView": 1,
      "byteOffset": 524256,
      "componentType": 5126,
      "count": 65532,
      "max": [
        0.99950003623962402,
        0.9994998574256897
      ],
      "min": [
        0.0017541020642966032,
        0.00050000002374872565
      ],
      "type": "VEC2"
    },
    {
      "bufferView": 0,
      "componentType": 5125,
      "count": 190377,
      "max": [
        65531
      ],
      "min": [
        0
      ],
      "type": "SCALAR"
    },
    {
      "bufferView": 2,
      "byteOffset": 1572768,
      "componentType": 5126,
      "count": 65533,
      "max": [
        30.545372009277344,
        53.984596252441406,
        56.465057373046875
      ],
      "min": [
        -43.770301818847656,
        -35.044342041015625,
        -0.15778802335262299
      ],
      "type": "VEC3"
    },
    {
      "bufferView": 2,
      "byteOffset": 2359164,
      "componentType": 5126,
      "count": 65533,
      "max": [
        1,
        1,
        1
      ],
      "min": [
        -1,
        -1,
        -1
      ],
      "type": "VEC3"
    },
    {
      "bufferView": 1,
      "byteOffset": 1048512,
      "componentType": 5126,
      "count": 65533,
      "max": [
        0.99942505359649658,
        0.99950003623962402
      ],
      "min": [
        0.00050000002374872565,
        0.00050000002374872565
      ],
      "type": "VEC2"
    },
    {
      "bufferView": 1,
      "byteOffset": 1572776,
      "componentType": 5126,
      "count": 65533,
      "max": [
        0.9994998574256897,
        0.99949991703033447
      ],
      "min": [
        0.00050000002374872565,
        0.00050000002374872565
      ],
      "type": "VEC2"
    },
    {
      "bufferView": 0,
      "byteOffset": 761508,
      "componentType": 5125,
      "count": 154827,
      "max": [
        65532
      ],
      "min": [
        0
      ],
      "type": "SCALAR"
    },
    {
      "bufferView": 2,
      "byteOffset": 3145560,
      "componentType": 5126,
      "count": 26048,
      "max": [
        30.870830535888672,
        53.493392944335938,
        56.611053466796875
      ],
      "min": [
        -43.673435211181641,
        -29.430122375488281,
        0.33613109588623047
      ],
      "type": "VEC3"
    },
    {
      "bufferView": 2,
      "byteOffset": 3458136,
      "componentType": 5126,
      "count": 26048,
      "max": [
        1,
        1,
        1
      ],
      "min": [
        -1,
        -1,
        -1
      ],
      "type": "VEC3"
    },
    {
      "bufferView": 1,
      "byteOffset": 2097040,
      "componentType": 5126,
      "count": 26048,
      "max": [
        0.99940812587738037,
        0.99949848651885986
      ],
      "min": [
        0.00050000002374872565,
        0.00050000002374872565
      ],
      "type": "VEC2"
    },
    {
      "bufferView": 1,
      "byteOffset": 2305424,
      "componentType": 5126,
      "count": 26048,
      "max": [
        0.99901652336120605,
        0.99949914216995239
      ],
      "min": [
        0.00050000002374872565,
        0.00050000002374872565
      ],
      "type": "VEC2"
    },
    {
      "bufferView": 0,
      "byteOffset": 1380816,
      "componentType": 5125,
      "count": 55206,
      "max": [
        26047
      ],
      "min": [
        0
      ],
      "type": "SCALAR"
    },
    {
      "bufferView": 2,
      "byteOffset": 3770712,
      "componentType": 5126,
      "count": 176,
      "max": [
        28.108753204345703,
        16.645820617675781,
        42.295654296875
      ],
      "min": [
        -38.090953826904297,
        -21.771797180175781,
        8.1407852172851562
      ],
      "type": "VEC3"
    },
    {
      "bufferView": 2,
      "byteOffset": 3772824,
      "componentType": 5126,
      "count": 176,
      "max": [
        1,
        1,
        1
      ],
      "min": [
        -1,
        -1,
        -1
      ],
      "type": "VEC3"
    },
    {
      "bufferView": 1,
      "byteOffset": 2513808,
      "componentType": 5126,
      "count": 176,
      "max": [
        53.772743225097656,
        27.664011001586914
      ],
      "min": [
        -150.08039855957031,
        -381.49395751953125
      ],
      "type": "VEC2"
    },
    {
      "bufferView": 1,
      "byteOffset": 2515216,
      "componentType": 5126,
      "count": 176,
      "max": [
        0.99309331178665161,
        0.99884575605392456
      ],
      "min": [
        0.216342493891716,
        0.02293887734413147
      ],
      "type": "VEC2"
    },
    {
      "bufferView": 0,
      "byteOffset": 1601640,
      "componentType": 5125,
      "count": 252,
      "max": [
        175
      ],
      "min": [
        0
      ],
      "type": "SCALAR"
    },
    {
      "bufferView": 2,
      "byteOffset": 3774936,
      "componentType": 5126,
      "count": 372,
      "max": [
        29.117340087890625,
        35.044525146484375,
        40.203018188476562
      ],
      "min": [
        -38.054706573486328,
        -21.886646270751953,
        3.9458522796630859
      ],
      "type": "VEC3"
    },
    {
      "bufferView": 2,
      "byteOffset": 3779400,
      "componentType": 5126,
      "count": 372,
      "max": [
        1,
        1,
        1
      ],
      "min": [
        -1,
        -1,
        -1
      ],
      "type": "VEC3"
    },
    {
      "bufferView": 1,
      "byteOffset": 2516624,
      "componentType": 5126,
      "count": 372,
      "max": [
        41.282867431640625,
        33.897743225097656
      ],
      "min": [
        -175.11782836914062,
        -381.26983642578125
      ],
      "type": "VEC2"
    },
    {
      "bufferView": 1,
      "byteOffset": 2519600,
      "componentType": 5126,
      "count": 372,
      "max": [
        0.99122214317321777,
        0.99947994947433472
      ],
      "min": [
        0.078025065362453461,
        0.00050000002374872565
      ],
      "type": "VEC2"
    },
    {
      "bufferView": 0,
      "byteOffset": 1602648,
      "componentType": 5125,
      "count": 612,
      "max": [
        371
      ],
      "min": [
        0
      ],
      "type": "SCALAR"
    },
    {
      "bufferView": 2,
      "byteOffset": 3783864,
      "componentType": 5126,
      "count": 44,
      "max": [
        30.420488357543945,
        19.059181213378906,
        30.217075347900391
      ],
      "min": [
        24.221498489379883,
        -6.2556071281433105,
        22.432689666748047
      ],
      "type": "VEC3"
    },
    {
      "bufferView": 2,
      "byteOffset": 3784392,
      "componentType": 5126,
      "count": 44,
      "max": [
        0.9256778359413147,
        0.72172367572784424,
        1
      ],
      "min": [
        -0.9256778359413147,
        -0.72172367572784424,
        -1
      ],
      "type": "VEC3"
    },
    {
      "bufferView": 1,
      "byteOffset": 2522576,
      "componentType": 5126,
      "count": 44,
      "max": [
        30.58036994934082,
        19.07830810546875
      ],
      "min": [
        24.381380081176758,
        -6.2364792823791504
      ],
      "type": "VEC2"
    },
    {
      "bufferView": 1,
      "byteOffset": 2522928,
      "componentType": 5126,
      "count": 44,
      "max": [
        0.92083656787872314,
        0.93464028835296631
      ],
      "min": [
        0.22536841034889221,
        0.00050000002374872565
      ],
      "type": "VEC2"
    },
    {
      "bufferView": 0,
      "byteOffset": 1605096,
      "componentType": 5125,
      "count": 84,
      "max": [
        43
      ],
      "min": [
        0
      ],
      "type": "SCALAR"
    },
    {
      "bufferView": 2,
      "byteOffset": 3784920,
      "componentType": 5126,
      "count": 5098,
      "max": [
        2.3550548553466797,
        153.65248107910156,
        218.66963195800781
      ],
      "min": [
        -402.63882446289062,
        -191.77458190917969,
        -2.7491035461425781
      ],
      "type": "VEC3"
    },
    {
      "bufferView": 2,
      "byteOffset": 3846096,
      "componentType": 5126,
      "count": 5098,
      "max": [
        0.99997192621231079,
        0.99991655349731445,
        1.8421104641674901e-07
      ],
      "min": [
        -0.99983078241348267,
        -0.99999570846557617,
        -3.4526939884926833e-07
      ],
      "type": "VEC3"
    },
    {
      "bufferView": 1,
      "byteOffset": 2523280,
      "componentType": 5126,
      "count": 5098,
      "max": [
        0.9456477165222168,
        0.99950003623962402
      ],
      "min": [
        0.00050000002374872565,
        0.00050000002374872565
      ],
      "type": "VEC2"
    },
    {
      "bufferView": 0,
      "byteOffset": 1605432,
      "componentType": 5125,
      "count": 12600,
      "max": [
        5097
      ],
      "min": [
        0
      ],
      "type": "SCALAR"
    }
  ],
  "asset": {
    "extras": {
      "author": "Anton Revutsky (https://sketchfab.com/anton.revutsky)",
      "license": "CC-BY-4.0 (http://creativecommons.org/licenses/by/4.0/)",
      "source": "https://sketchfab.com/3d-models/final-house-20ea8edb2b7043b1a98a0b6ae18684bb",
      "title": "Final House"
    },
    "generator": "Sketchfab-9.35.0",
    "version": "2.0"
  },
  "bufferViews": [
    {
      "buffer": 0,
      "byteLength": 1655832,
      "byteOffset": 0,
      "name": "floatBufferViews",
      "target": 34963
    },
    {
      "buffer": 0,
      "byteLength": 2564064,
      "byteOffset": 1655832,
      "byteStride": 8,
      "name": "floatBufferViews",
      "target": 34962
    },
    {
      "buffer": 0,
      "byteLength": 3907272,
      "byteOffset": 4219896,
      "byteStride": 12,
      "name": "floatBufferViews",
      "target": 34962
    }
  ],
  "buffers": [
    {
      "byteLength": 8127168,
      "uri": "scene.bin"
    }
  ],
  "extensionsUsed": [
    "KHR_materials_unlit"
  ],
  "images": [
    {
      "uri": "textures/Material_2125644136_baseColor.jpeg"
    },
    {
      "uri": "textures/Material_2125644137_baseColor.jpeg"
    }
  ],
  "materials": [
    {
      "doubleSided": true,
      "emissiveFactor": [
        0,
        0,
        0
      ],
      "extensions": {
        "KHR_materials_unlit": {}
      },
      "name": "Material_2125644136",
      "pbrMetallicRoughness": {
        "baseColorFactor": [
          1,
          1,
          1,
          1
        ],
        "baseColorTexture": {
          "index": 0,
          "texCoord": 0
        },
        "metallicFactor": 0,
        "roughnessFactor": 1
      }
    },
    {
      "alphaMode": "BLEND",
      "doubleSided": true,
      "emissiveFactor": [
        0,
        0,
        0
      ],
      "extensions": {
        "KHR_materials_unlit": {}
      },
      "name": "CRN.cgaxis_models_46_14_03",
      "pbrMetallicRoughness": {
        "baseColorFactor": [
          0,
          0,
          0,
          0.3049693195
        ],
        "metallicFactor": 0,
        "roughnessFactor": 1
      }
    },
    {
      "alphaMode": "BLEND",
      "doubleSided": true,
      "emissiveFactor": [
        0,
        0,
        0
      ],
      "extensions": {
        "KHR_materials_unlit": {}
      },
      "name": "CRN.cgaxis_models_46_15_03",
      "pbrMetallicRoughness": {
        "baseColorFactor": [
          0,
          0,
          0,
          0.29883435019999999
        ],
        "metallicFactor": 0,
        "roughnessFactor": 1
      }
    },
    {
      "alphaMode": "BLEND",
      "doubleSided": true,
      "emissiveFactor": [
        0,
        0,
        0
      ],
      "extensions": {
        "KHR_materials_unlit": {}
      },
      "name": "CRN.Solid_Glass",
      "pbrMetallicRoughness": {
        "baseColorFactor": [
          0,
          0,
          0,
          0.42153373669999999
        ],
        "metallicFactor": 0,
        "roughnessFactor": 1
      }
    },
    {
      "doubleSided": true,
      "emissiveFactor": [
        0,
        0,
        0
      ],
      "extensions": {
        "KHR_materials_unlit": {}
      },
      "name": "Material_2125644137",
      "pbrMetallicRoughness": {
        "baseColorFactor": [
          1,
          1,
          1,
          1
        ],
        "baseColorTexture": {
          "index": 1,
          "texCoord": 0
        },
        "metallicFactor": 0,
        "roughnessFactor": 1
      }
    }
  ],
  "meshes": [
    {
      "name": "Object029_Material #2125644136_0",
      "primitives": [
        {
          "attributes": {
            "NORMAL": 1,
            "POSITION": 0,
            "TEXCOORD_0": 2,
            "TEXCOORD_1": 3
          },
          "indices": 4,
          "material": 0,
          "mode": 4
        }
      ]
    },
    {
      "name": "Object029_Material #2125644136_0",
      "primitives": [
        {
          "attributes": {
            "NORMAL": 6,
            "POSITION": 5,
            "TEXCOORD_0": 7,
            "TEXCOORD_1": 8
          },
          "indices": 9,
          "material": 0,
          "mode": 4
        }
      ]
    },
    {
      "name": "Object029_Material #2125644136_0",
      "primitives": [
        {
          "attributes": {
            "NORMAL": 11,
            "POSITION": 10,
            "TEXCOORD_0": 12,
            "TEXCOORD_1": 13
          },
          "indices": 14,
          "material": 0,
          "mode": 4
        }
      ]
    },
    {
      "name": "Object030_CRN.cgaxis_models_46_14_03_0",
      "primitives": [
        {
          "attributes": {
            "NORMAL": 16,
            "POSITION": 15,
            "TEXCOORD_0": 17,
            "TEXCOORD_1": 18
          },
          "indices": 19,
          "material": 1,
          "mode": 4
        }
      ]
    },
    {
      "name": "Object030_CRN.cgaxis_models_46_15_03_0",
      "primitives": [
        {
          "attributes": {
            "NORMAL": 21,
            "POSITION": 20,
            "TEXCOORD_0": 22,
            "TEXCOORD_1": 23
          },
          "indices": 24,
          "material": 2,
          "mode": 4
        }
      ]
    },
    {
      "name": "Object030_CRN.Solid Glass_0",
      "primitives": [
        {
          "attributes": {
            "NORMAL": 26,
            "POSITION": 25,
            "TEXCOORD_0": 27,
            "TEXCOORD_1": 28
          },
          "indices": 29,
          "material": 3,
          "mode": 4
        }
      ]
    },
    {
      "name": "Line017_Material #2125644137_0",
      "primitives": [
        {
          "attributes": {
            "NORMAL": 31,
            "POSITION": 30,
            "TEXCOORD_0": 32
          },
          "indices": 33,
          "material": 4,
          "mode": 4
        }
      ]
    }
  ],
  "nodes": [
    {
      "children": [
        1
      ],
      "name": "RootNode (gltf orientation matrix)",
      "rotation": [
        -0.70710678118654746,
        -0,
        -0,
        0.70710678118654757
      ]
    },
    {
      "children": [
        2
      ],
      "matrix": [
        0.024898204952478409,
        0,
        0,
        0,
        0,
        0.024898204952478409,
        0,
        0,
        0,
        0,
        0.024898204952478409,
        0,
        0,
        0,
        0,
        1
      ],
      "name": "RootNode (model correction matrix)"
    },
    {
      "children": [
        3
      ],
      "matrix": [
        1,
        0,
        0,
        0,
        0,
        0,
        1,
        0,
        0,
        -1,
        0,
        0,
        0,
        0,
        0,
        1
      ],
      "name": "162d4f6d04784479bb86bf3ec1c14c65.fbx"
    },
    {
      "children": [
        4,
        8,
        12
      ],
      "name": "RootNode"
    },
    {
      "children": [
        5,
        6,
        7
      ],
      "matrix": [
        6.1806597709655762,
        0,
        0,
        0,
        0,
        7.3679205750713638e-07,
        -6.1806597709655327,
        0,
        0,
        5.968493461608845,
        7.1149986259633493e-07,
        0,
        62.9693603515625,
        0,
        -6.199127197265625,
        1
      ],
      "name": "Object029"
    },
    {
      "mesh": 0,
      "name": "Object029_Material #2125644136_0"
    },
    {
      "mesh": 1,
      "name": "Object029_Material #2125644136_0"
    },
    {
      "mesh": 2,
      "name": "Object029_Material #2125644136_0"
    },
    {
      "children": [
        9,
        10,
        11
      ],
      "matrix": [
        6.1806597709655762,
        0,
        0,
        0,
        0,
        7.3679205750713638e-07,
        -6.1806597709655327,
        0,
        0,
        5.968493461608845,
        7.1149986259633493e-07,
        0,
        62.9693603515625,
        0,
        -6.199127197265625,
        1
      ],
      "name": "Object030"
    },
    {
      "mesh": 3,
      "name": "Object030_CRN.cgaxis_models_46_14_03_0"
    },
    {
      "mesh": 4,
      "name": "Object030_CRN.cgaxis_models_46_15_03_0"
    },
    {
      "mesh": 5,
      "name": "Object030_CRN.Solid Glass_0"
    },
    {
      "children": [
        13
      ],
      "matrix": [
        1,
        0,
        0,
        0,
        0,
        2.2204460492503131e-16,
        -1,
        0,
        0,
        1,
        2.2204460492503131e-16,
        0,
        236.393798828125,
        26.37451171875,
        -67.0064697265625,
        1
      ],
      "name": "Line017"
    },
    {
      "mesh": 6,
      "name": "Line017_Material #2125644137_0"
    }
  ],
  "samplers": [
    {
      "magFilter": 9729,
      "minFilter": 9987,
      "wrapS": 10497,
      "wrapT": 10497
    }
  ],
  "scene": 0,
  "scenes": [
    {
      "name": "OSG_Scene",
      "nodes": [
        0
      ]
    }
  ],
  "textures": [
    {
      "sampler": 0,
      "source": 0
    },
    {
      "sampler": 0,
      "source": 1
    }
  ]
}

